<svg fill="white" height="458pt" viewBox="-10 0 458 458.592" width="458pt" xmlns="http://www.w3.org/2000/svg"><path d="m402.886719 273.34375-86.949219 150.65625h86.949219zm0 0"/><path d="m185.535156 424-102.648437-59.257812v59.257812zm0 0"/><path d="m290.886719 96.800781v23.199219c0 22.089844-17.90625 40-40 40-22.089844 0-40-17.910156-40-40v-48h16v48c0 13.253906 10.746093 24 24 24 13.257812 0 24-10.746094 24-24v-32.449219l-114.589844-66.144531-160 277.1875 277.183594 160 160-277.195312zm-56-8.800781h16v16c0 4.417969 3.582031 8 8 8h8v16h-8c-13.253907 0-24-10.746094-24-24zm2.351562 254.640625-124.703125-72 8-13.855469 124.703125 72zm24-43.710937-124.703125-72 8-13.859376 124.703125 72zm-100.703125-115.730469 8-13.855469 124.703125 72-8 13.855469zm0 0"/><path d="m82.886719 123.503906 11.257812-19.503906h-11.257812zm0 0"/><path d="m335.398438 104 67.488281 38.945312v-38.945312zm0 0"/><path d="m250.886719 160c-22.078125-.027344-39.972657-17.917969-40-40v-48h16v48c0 13.253906 10.746093 24 24 24 13.257812 0 24-10.746094 24-24v-32.449219l-114.589844-66.144531-160 277.1875 277.183594 160 160-277.195312-146.59375-84.597657v23.199219c-.023438 22.082031-17.917969 39.972656-40 40zm0 0"/><path d="m250.886719 0c-22.015625.179688-39.820313 17.984375-40 40v8h16v-8c0-13.253906 10.746093-24 24-24 13.257812 0 24 10.746094 24 24v47.550781l16 9.25v-56.800781c-.023438-22.082031-17.917969-39.9726562-40-40zm0 0"/></svg>